  0
SECTION
  2
HEADER
  9
$ACADVER
  1
AC1014
  9
$HANDSEED
  5
FFFF
  9
$MEASUREMENT
 70
     1
  0
ENDSEC
  0
SECTION
  2
TABLES
  0
TABLE
  2
VPORT
  5
8
330
0
100
AcDbSymbolTable
 70
     4
  0
VPORT
  5
2E
330
8
100
AcDbSymbolTableRecord
100
AcDbViewportTableRecord
  2
*ACTIVE
 70
     0
 10
0.0
 20
0.0
 11
1.0
 21
1.0
 12
210.0
 22
148.5
 13
0.0
 23
0.0
 14
10.0
 24
10.0
 15
10.0
 25
10.0
 16
0.0
 26
0.0
 36
1.0
 17
0.0
 27
0.0
 37
0.0
 40
341.0
 41
1.24
 42
50.0
 43
0.0
 44
0.0
 50
0.0
 51
0.0
 71
     0
 72
   100
 73
     1
 74
     3
 75
     0
 76
     0
 77
     0
 78
     0
  0
ENDTAB
  0
TABLE
  2
LTYPE
  5
5
330
0
100
AcDbSymbolTable
 70
     1
  0
LTYPE
  5
14
330
5
100
AcDbSymbolTableRecord
100
AcDbLinetypeTableRecord
  2
BYBLOCK
 70
     0
  3

 72
    65
 73
     0
 40
0.0
  0
LTYPE
  5
15
330
5
100
AcDbSymbolTableRecord
100
AcDbLinetypeTableRecord
  2
BYLAYER
 70
     0
  3

 72
    65
 73
     0
 40
0.0
  0
LTYPE
  5
16
330
5
100
AcDbSymbolTableRecord
100
AcDbLinetypeTableRecord
  2
CONTINUOUS
 70
     0
  3
Solid line
 72
    65
 73
     0
 40
0.0
  0
ENDTAB
  0
TABLE
  2
LAYER
  5
2
100
AcDbSymbolTable
 70
2
  0
LAYER
  5
50
100
AcDbSymbolTableRecord
100
AcDbLayerTableRecord
  2
0
 70
0
  6
CONTINUOUS
  0
LAYER
  5
51
100
AcDbSymbolTableRecord
100
AcDbLayerTableRecord
  2
Layer_1
 70
0
  6
CONTINUOUS
  0
ENDTAB
  0
TABLE
  2
STYLE
  5
3
330
0
100
AcDbSymbolTable
 70
     1
  0
STYLE
  5
11
330
3
100
AcDbSymbolTableRecord
100
AcDbTextStyleTableRecord
  2
STANDARD
 70
     0
 40
0.0
 41
1.0
 50
0.0
 71
     0
 42
2.5
  3
txt
  4

  0
ENDTAB
  0
TABLE
  2
VIEW
  5
6
330
0
100
AcDbSymbolTable
 70
     0
  0
ENDTAB
  0
TABLE
  2
UCS
  5
7
330
0
100
AcDbSymbolTable
 70
     0
  0
ENDTAB
  0
TABLE
  2
APPID
  5
9
330
0
100
AcDbSymbolTable
 70
     2
  0
APPID
  5
12
330
9
100
AcDbSymbolTableRecord
100
AcDbRegAppTableRecord
  2
ACAD
 70
     0
  0
ENDTAB
  0
TABLE
  2
DIMSTYLE
  5
A
330
0
100
AcDbSymbolTable
 70
     1
  0
DIMSTYLE
105
27
330
A
100
AcDbSymbolTableRecord
100
AcDbDimStyleTableRecord
  2
ISO-25
 70
     0
  3

  4

  5

  6

  7

 40
1.0
 41
2.5
 42
0.625
 43
3.75
 44
1.25
 45
0.0
 46
0.0
 47
0.0
 48
0.0
140
2.5
141
2.5
142
0.0
143
0.03937007874016
144
1.0
145
0.0
146
1.0
147
0.625
 71
     0
 72
     0
 73
     0
 74
     0
 75
     0
 76
     0
 77
     1
 78
     8
170
     0
171
     3
172
     1
173
     0
174
     0
175
     0
176
     0
177
     0
178
     0
270
     2
271
     2
272
     2
273
     2
274
     3
340
11
275
     0
280
     0
281
     0
282
     0
283
     0
284
     8
285
     0
286
     0
287
     3
288
     0
  0
ENDTAB
  0
TABLE
  2
BLOCK_RECORD
  5
1
330
0
100
AcDbSymbolTable
 70
     1
  0
BLOCK_RECORD
  5
1F
330
1
100
AcDbSymbolTableRecord
100
AcDbBlockTableRecord
  2
*MODEL_SPACE
  0
BLOCK_RECORD
  5
1B
330
1
100
AcDbSymbolTableRecord
100
AcDbBlockTableRecord
  2
*PAPER_SPACE
  0
ENDTAB
  0
ENDSEC
  0
SECTION
  2
BLOCKS
  0
BLOCK
  5
20
330
1F
100
AcDbEntity
  8
0
100
AcDbBlockBegin
  2
*MODEL_SPACE
 70
     0
 10
0.0
 20
0.0
 30
0.0
  3
*MODEL_SPACE
  1

  0
ENDBLK
  5
21
330
1F
100
AcDbEntity
  8
0
100
AcDbBlockEnd
  0
BLOCK
  5
1C
330
1B
100
AcDbEntity
 67
     1
  8
0
100
AcDbBlockBegin
  2
*PAPER_SPACE
  1

  0
ENDBLK
  5
1D
330
1B
100
AcDbEntity
 67
     1
  8
0
100
AcDbBlockEnd
  0
ENDSEC
  0
SECTION
  2
ENTITIES
  0
SPLINE
  5
100
100
AcDbEntity
  8
Layer_1
 62
7
100
AcDbSpline
 70
8
 71
3
 72
8
 73
4
 74
0
 40
0
 40
0
 40
0
 40
0
 40
1
 40
1
 40
1
 40
1
 10
60.000107
 20
120.000224
 30
0.0
 10
26.864828
 20
120.000224
 30
0.0
 10
-0.000228
 20
93.135171
 30
0.0
 10
-0.000228
 20
59.999889
 30
0.0
  0
SPLINE
  5
101
100
AcDbEntity
  8
Layer_1
 62
7
100
AcDbSpline
 70
8
 71
3
 72
8
 73
4
 74
0
 40
0
 40
0
 40
0
 40
0
 40
1
 40
1
 40
1
 40
1
 10
-0.000228
 20
59.999889
 30
0.0
 10
-0.000228
 20
26.864607
 30
0.0
 10
26.864828
 20
0.000105
 30
0.0
 10
60.000107
 20
0.000108
 30
0.0
  0
SPLINE
  5
102
100
AcDbEntity
  8
Layer_1
 62
7
100
AcDbSpline
 70
8
 71
3
 72
8
 73
4
 74
0
 40
0
 40
0
 40
0
 40
0
 40
1
 40
1
 40
1
 40
1
 10
60.000107
 20
0.000108
 30
0.0
 10
93.135383
 20
0.000108
 30
0.0
 10
119.999891
 20
26.864607
 30
0.0
 10
119.999891
 20
59.999889
 30
0.0
  0
SPLINE
  5
103
100
AcDbEntity
  8
Layer_1
 62
7
100
AcDbSpline
 70
8
 71
3
 72
8
 73
4
 74
0
 40
0
 40
0
 40
0
 40
0
 40
1
 40
1
 40
1
 40
1
 10
119.999891
 20
59.999889
 30
0.0
 10
119.999891
 20
93.135171
 30
0.0
 10
93.135383
 20
120.000224
 30
0.0
 10
60.000107
 20
120.000224
 30
0.0
  0
LINE
  5
104
100
AcDbEntity
  8
Layer_1
 62
7
100
AcDbLine
 10
60.000107
 20
120.000224
 30
0.0
 11
60.000107
 21
120.000224
 31
0.0
  0
SPLINE
  5
105
100
AcDbEntity
  8
Layer_1
 62
7
100
AcDbSpline
 70
8
 71
3
 72
8
 73
4
 74
0
 40
0
 40
0
 40
0
 40
0
 40
1
 40
1
 40
1
 40
1
 10
60.000107
 20
119.695401
 30
0.0
 10
92.970724
 20
119.695401
 30
0.0
 10
119.695068
 20
92.970508
 30
0.0
 10
119.695068
 20
59.999889
 30
0.0
  0
SPLINE
  5
106
100
AcDbEntity
  8
Layer_1
 62
7
100
AcDbSpline
 70
8
 71
3
 72
8
 73
4
 74
0
 40
0
 40
0
 40
0
 40
0
 40
1
 40
1
 40
1
 40
1
 10
119.695068
 20
59.999889
 30
0.0
 10
119.695068
 20
27.029269
 30
0.0
 10
92.970724
 20
0.304927
 30
0.0
 10
60.000107
 20
0.304927
 30
0.0
  0
SPLINE
  5
107
100
AcDbEntity
  8
Layer_1
 62
7
100
AcDbSpline
 70
8
 71
3
 72
8
 73
4
 74
0
 40
0
 40
0
 40
0
 40
0
 40
1
 40
1
 40
1
 40
1
 10
60.000107
 20
0.304927
 30
0.0
 10
27.029490
 20
0.304927
 30
0.0
 10
0.304594
 20
27.029269
 30
0.0
 10
0.304595
 20
59.999889
 30
0.0
  0
SPLINE
  5
108
100
AcDbEntity
  8
Layer_1
 62
7
100
AcDbSpline
 70
8
 71
3
 72
8
 73
4
 74
0
 40
0
 40
0
 40
0
 40
0
 40
1
 40
1
 40
1
 40
1
 10
0.304595
 20
59.999889
 30
0.0
 10
0.304594
 20
92.970508
 30
0.0
 10
27.029490
 20
119.695402
 30
0.0
 10
60.000107
 20
119.695401
 30
0.0
  0
LINE
  5
109
100
AcDbEntity
  8
Layer_1
 62
7
100
AcDbLine
 10
60.000107
 20
119.695401
 30
0.0
 11
60.000107
 21
119.695401
 31
0.0
  0
SPLINE
  5
10a
100
AcDbEntity
  8
Layer_1
 62
7
100
AcDbSpline
 70
8
 71
3
 72
8
 73
4
 74
0
 40
0
 40
0
 40
0
 40
0
 40
1
 40
1
 40
1
 40
1
 10
60.556282
 20
64.312047
 30
0.0
 10
58.348003
 20
64.312047
 30
0.0
 10
56.556112
 20
62.520159
 30
0.0
 10
56.556112
 20
60.311877
 30
0.0
  0
SPLINE
  5
10b
100
AcDbEntity
  8
Layer_1
 62
7
100
AcDbSpline
 70
8
 71
3
 72
8
 73
4
 74
0
 40
0
 40
0
 40
0
 40
0
 40
1
 40
1
 40
1
 40
1
 10
56.556112
 20
60.311877
 30
0.0
 10
56.556115
 20
58.103598
 30
0.0
 10
58.348003
 20
56.312260
 30
0.0
 10
60.556282
 20
56.312258
 30
0.0
  0
SPLINE
  5
10c
100
AcDbEntity
  8
Layer_1
 62
7
100
AcDbSpline
 70
8
 71
3
 72
8
 73
4
 74
0
 40
0
 40
0
 40
0
 40
0
 40
1
 40
1
 40
1
 40
1
 10
60.556282
 20
56.312258
 30
0.0
 10
62.764564
 20
56.312258
 30
0.0
 10
64.556452
 20
58.103595
 30
0.0
 10
64.556452
 20
60.311877
 30
0.0
  0
SPLINE
  5
10d
100
AcDbEntity
  8
Layer_1
 62
7
100
AcDbSpline
 70
8
 71
3
 72
8
 73
4
 74
0
 40
0
 40
0
 40
0
 40
0
 40
1
 40
1
 40
1
 40
1
 10
64.556452
 20
60.311877
 30
0.0
 10
64.556452
 20
62.520159
 30
0.0
 10
62.764564
 20
64.312047
 30
0.0
 10
60.556282
 20
64.312047
 30
0.0
  0
LINE
  5
10e
100
AcDbEntity
  8
Layer_1
 62
7
100
AcDbLine
 10
60.556282
 20
64.312047
 30
0.0
 11
60.556282
 21
64.312047
 31
0.0
  0
SPLINE
  5
10f
100
AcDbEntity
  8
Layer_1
 62
7
100
AcDbSpline
 70
8
 71
3
 72
8
 73
4
 74
0
 40
0
 40
0
 40
0
 40
0
 40
1
 40
1
 40
1
 40
1
 10
60.556282
 20
64.167078
 30
0.0
 10
62.686256
 20
64.167078
 30
0.0
 10
64.411483
 20
62.441851
 30
0.0
 10
64.411483
 20
60.311877
 30
0.0
  0
SPLINE
  5
110
100
AcDbEntity
  8
Layer_1
 62
7
100
AcDbSpline
 70
8
 71
3
 72
8
 73
4
 74
0
 40
0
 40
0
 40
0
 40
0
 40
1
 40
1
 40
1
 40
1
 10
64.411483
 20
60.311877
 30
0.0
 10
64.411483
 20
58.181906
 30
0.0
 10
62.686253
 20
56.457227
 30
0.0
 10
60.556282
 20
56.457230
 30
0.0
  0
SPLINE
  5
111
100
AcDbEntity
  8
Layer_1
 62
7
100
AcDbSpline
 70
8
 71
3
 72
8
 73
4
 74
0
 40
0
 40
0
 40
0
 40
0
 40
1
 40
1
 40
1
 40
1
 10
60.556282
 20
56.457230
 30
0.0
 10
58.426312
 20
56.457230
 30
0.0
 10
56.701084
 20
58.181906
 30
0.0
 10
56.701084
 20
60.311877
 30
0.0
  0
SPLINE
  5
112
100
AcDbEntity
  8
Layer_1
 62
7
100
AcDbSpline
 70
8
 71
3
 72
8
 73
4
 74
0
 40
0
 40
0
 40
0
 40
0
 40
1
 40
1
 40
1
 40
1
 10
56.701084
 20
60.311877
 30
0.0
 10
56.701082
 20
62.441848
 30
0.0
 10
58.426312
 20
64.167075
 30
0.0
 10
60.556282
 20
64.167078
 30
0.0
  0
LINE
  5
113
100
AcDbEntity
  8
Layer_1
 62
7
100
AcDbLine
 10
60.556282
 20
64.167078
 30
0.0
 11
60.556282
 21
64.167078
 31
0.0
  0
SPLINE
  5
114
100
AcDbEntity
  8
Layer_1
 62
7
100
AcDbSpline
 70
8
 71
3
 72
8
 73
4
 74
0
 40
0
 40
0
 40
0
 40
0
 40
1
 40
1
 40
1
 40
1
 10
60.397586
 20
52.542344
 30
0.0
 10
59.569631
 20
52.542344
 30
0.0
 10
58.897182
 20
51.870704
 30
0.0
 10
58.897180
 20
51.042751
 30
0.0
  0
SPLINE
  5
115
100
AcDbEntity
  8
Layer_1
 62
7
100
AcDbSpline
 70
8
 71
3
 72
8
 73
4
 74
0
 40
0
 40
0
 40
0
 40
0
 40
1
 40
1
 40
1
 40
1
 10
58.897180
 20
51.042751
 30
0.0
 10
58.897180
 20
50.214787
 30
0.0
 10
59.569625
 20
49.542342
 30
0.0
 10
60.397586
 20
49.542345
 30
0.0
  0
SPLINE
  5
116
100
AcDbEntity
  8
Layer_1
 62
7
100
AcDbSpline
 70
8
 71
3
 72
8
 73
4
 74
0
 40
0
 40
0
 40
0
 40
0
 40
1
 40
1
 40
1
 40
1
 10
60.397586
 20
49.542345
 30
0.0
 10
61.225541
 20
49.542345
 30
0.0
 10
61.897185
 20
50.214790
 30
0.0
 10
61.897179
 20
51.042751
 30
0.0
  0
SPLINE
  5
117
100
AcDbEntity
  8
Layer_1
 62
7
100
AcDbSpline
 70
8
 71
3
 72
8
 73
4
 74
0
 40
0
 40
0
 40
0
 40
0
 40
1
 40
1
 40
1
 40
1
 10
61.897179
 20
51.042751
 30
0.0
 10
61.897179
 20
51.870704
 30
0.0
 10
61.225538
 20
52.542342
 30
0.0
 10
60.397586
 20
52.542344
 30
0.0
  0
LINE
  5
118
100
AcDbEntity
  8
Layer_1
 62
7
100
AcDbLine
 10
60.397586
 20
52.542344
 30
0.0
 11
60.397586
 21
52.542344
 31
0.0
  0
SPLINE
  5
119
100
AcDbEntity
  8
Layer_1
 62
7
100
AcDbSpline
 70
8
 71
3
 72
8
 73
4
 74
0
 40
0
 40
0
 40
0
 40
0
 40
1
 40
1
 40
1
 40
1
 10
60.397586
 20
52.487771
 30
0.0
 10
61.196176
 20
52.487771
 30
0.0
 10
61.842606
 20
51.841341
 30
0.0
 10
61.842612
 20
51.042751
 30
0.0
  0
SPLINE
  5
11a
100
AcDbEntity
  8
Layer_1
 62
7
100
AcDbSpline
 70
8
 71
3
 72
8
 73
4
 74
0
 40
0
 40
0
 40
0
 40
0
 40
1
 40
1
 40
1
 40
1
 10
61.842612
 20
51.042751
 30
0.0
 10
61.842612
 20
50.244155
 30
0.0
 10
61.196182
 20
49.596896
 30
0.0
 10
60.397586
 20
49.596893
 30
0.0
  0
SPLINE
  5
11b
100
AcDbEntity
  8
Layer_1
 62
7
100
AcDbSpline
 70
8
 71
3
 72
8
 73
4
 74
0
 40
0
 40
0
 40
0
 40
0
 40
1
 40
1
 40
1
 40
1
 10
60.397586
 20
49.596893
 30
0.0
 10
59.598990
 20
49.596893
 30
0.0
 10
58.951728
 20
50.244152
 30
0.0
 10
58.951730
 20
51.042751
 30
0.0
  0
SPLINE
  5
11c
100
AcDbEntity
  8
Layer_1
 62
7
100
AcDbSpline
 70
8
 71
3
 72
8
 73
4
 74
0
 40
0
 40
0
 40
0
 40
0
 40
1
 40
1
 40
1
 40
1
 10
58.951730
 20
51.042751
 30
0.0
 10
58.951730
 20
51.841347
 30
0.0
 10
59.598993
 20
52.487777
 30
0.0
 10
60.397586
 20
52.487771
 30
0.0
  0
LINE
  5
11d
100
AcDbEntity
  8
Layer_1
 62
7
100
AcDbLine
 10
60.397586
 20
52.487771
 30
0.0
 11
60.397586
 21
52.487771
 31
0.0
  0
SPLINE
  5
11e
100
AcDbEntity
  8
Layer_1
 62
7
100
AcDbSpline
 70
8
 71
3
 72
8
 73
4
 74
0
 40
0
 40
0
 40
0
 40
0
 40
1
 40
1
 40
1
 40
1
 10
60.498954
 20
71.279693
 30
0.0
 10
59.670999
 20
71.279699
 30
0.0
 10
58.998548
 20
70.608055
 30
0.0
 10
58.998548
 20
69.780100
 30
0.0
  0
SPLINE
  5
11f
100
AcDbEntity
  8
Layer_1
 62
7
100
AcDbSpline
 70
8
 71
3
 72
8
 73
4
 74
0
 40
0
 40
0
 40
0
 40
0
 40
1
 40
1
 40
1
 40
1
 10
58.998548
 20
69.780100
 30
0.0
 10
58.998545
 20
68.952139
 30
0.0
 10
59.670993
 20
68.279693
 30
0.0
 10
60.498954
 20
68.279693
 30
0.0
  0
SPLINE
  5
120
100
AcDbEntity
  8
Layer_1
 62
7
100
AcDbSpline
 70
8
 71
3
 72
8
 73
4
 74
0
 40
0
 40
0
 40
0
 40
0
 40
1
 40
1
 40
1
 40
1
 10
60.498954
 20
68.279693
 30
0.0
 10
61.326910
 20
68.279696
 30
0.0
 10
61.998554
 20
68.952144
 30
0.0
 10
61.998548
 20
69.780100
 30
0.0
  0
SPLINE
  5
121
100
AcDbEntity
  8
Layer_1
 62
7
100
AcDbSpline
 70
8
 71
3
 72
8
 73
4
 74
0
 40
0
 40
0
 40
0
 40
0
 40
1
 40
1
 40
1
 40
1
 10
61.998548
 20
69.780100
 30
0.0
 10
61.998548
 20
70.608052
 30
0.0
 10
61.326907
 20
71.279693
 30
0.0
 10
60.498954
 20
71.279693
 30
0.0
  0
LINE
  5
122
100
AcDbEntity
  8
Layer_1
 62
7
100
AcDbLine
 10
60.498954
 20
71.279693
 30
0.0
 11
60.498954
 21
71.279693
 31
0.0
  0
SPLINE
  5
123
100
AcDbEntity
  8
Layer_1
 62
7
100
AcDbSpline
 70
8
 71
3
 72
8
 73
4
 74
0
 40
0
 40
0
 40
0
 40
0
 40
1
 40
1
 40
1
 40
1
 10
60.498954
 20
71.225125
 30
0.0
 10
61.297545
 20
71.225120
 30
0.0
 10
61.943975
 20
70.578690
 30
0.0
 10
61.943980
 20
69.780100
 30
0.0
  0
SPLINE
  5
124
100
AcDbEntity
  8
Layer_1
 62
7
100
AcDbSpline
 70
8
 71
3
 72
8
 73
4
 74
0
 40
0
 40
0
 40
0
 40
0
 40
1
 40
1
 40
1
 40
1
 10
61.943980
 20
69.780100
 30
0.0
 10
61.943980
 20
68.981507
 30
0.0
 10
61.297550
 20
68.334244
 30
0.0
 10
60.498954
 20
68.334244
 30
0.0
  0
SPLINE
  5
125
100
AcDbEntity
  8
Layer_1
 62
7
100
AcDbSpline
 70
8
 71
3
 72
8
 73
4
 74
0
 40
0
 40
0
 40
0
 40
0
 40
1
 40
1
 40
1
 40
1
 10
60.498954
 20
68.334244
 30
0.0
 10
59.700359
 20
68.334241
 30
0.0
 10
59.053096
 20
68.981504
 30
0.0
 10
59.053099
 20
69.780100
 30
0.0
  0
SPLINE
  5
126
100
AcDbEntity
  8
Layer_1
 62
7
100
AcDbSpline
 70
8
 71
3
 72
8
 73
4
 74
0
 40
0
 40
0
 40
0
 40
0
 40
1
 40
1
 40
1
 40
1
 10
59.053099
 20
69.780100
 30
0.0
 10
59.053099
 20
70.578695
 30
0.0
 10
59.700362
 20
71.225125
 30
0.0
 10
60.498954
 20
71.225125
 30
0.0
  0
LINE
  5
127
100
AcDbEntity
  8
Layer_1
 62
7
100
AcDbLine
 10
60.498954
 20
71.225125
 30
0.0
 11
60.498954
 21
71.225125
 31
0.0
  0
SPLINE
  5
128
100
AcDbEntity
  8
Layer_1
 62
7
100
AcDbSpline
 70
8
 71
3
 72
8
 73
4
 74
0
 40
0
 40
0
 40
0
 40
0
 40
1
 40
1
 40
1
 40
1
 10
69.743657
 20
61.801268
 30
0.0
 10
68.915696
 20
61.801265
 30
0.0
 10
68.244080
 20
61.129633
 30
0.0
 10
68.244083
 20
60.301680
 30
0.0
  0
SPLINE
  5
129
100
AcDbEntity
  8
Layer_1
 62
7
100
AcDbSpline
 70
8
 71
3
 72
8
 73
4
 74
0
 40
0
 40
0
 40
0
 40
0
 40
1
 40
1
 40
1
 40
1
 10
68.244083
 20
60.301680
 30
0.0
 10
68.244083
 20
59.473739
 30
0.0
 10
68.915721
 20
58.802098
 30
0.0
 10
69.743657
 20
58.802098
 30
0.0
  0
SPLINE
  5
12a
100
AcDbEntity
  8
Layer_1
 62
7
100
AcDbSpline
 70
8
 71
3
 72
8
 73
4
 74
0
 40
0
 40
0
 40
0
 40
0
 40
1
 40
1
 40
1
 40
1
 10
69.743657
 20
58.802098
 30
0.0
 10
70.571612
 20
58.802101
 30
0.0
 10
71.244080
 20
59.473742
 30
0.0
 10
71.244083
 20
60.301680
 30
0.0
  0
SPLINE
  5
12b
100
AcDbEntity
  8
Layer_1
 62
7
100
AcDbSpline
 70
8
 71
3
 72
8
 73
4
 74
0
 40
0
 40
0
 40
0
 40
0
 40
1
 40
1
 40
1
 40
1
 10
71.244083
 20
60.301680
 30
0.0
 10
71.244083
 20
61.129633
 30
0.0
 10
70.571618
 20
61.801265
 30
0.0
 10
69.743657
 20
61.801268
 30
0.0
  0
LINE
  5
12c
100
AcDbEntity
  8
Layer_1
 62
7
100
AcDbLine
 10
69.743657
 20
61.801268
 30
0.0
 11
69.743657
 21
61.801268
 31
0.0
  0
SPLINE
  5
12d
100
AcDbEntity
  8
Layer_1
 62
7
100
AcDbSpline
 70
8
 71
3
 72
8
 73
4
 74
0
 40
0
 40
0
 40
0
 40
0
 40
1
 40
1
 40
1
 40
1
 10
69.743657
 20
61.746709
 30
0.0
 10
70.542267
 20
61.746703
 30
0.0
 10
71.189515
 20
61.100282
 30
0.0
 10
71.189510
 20
60.301680
 30
0.0
  0
SPLINE
  5
12e
100
AcDbEntity
  8
Layer_1
 62
7
100
AcDbSpline
 70
8
 71
3
 72
8
 73
4
 74
0
 40
0
 40
0
 40
0
 40
0
 40
1
 40
1
 40
1
 40
1
 10
71.189510
 20
60.301680
 30
0.0
 10
71.189510
 20
59.503085
 30
0.0
 10
70.542267
 20
58.855842
 30
0.0
 10
69.743657
 20
58.855839
 30
0.0
  0
SPLINE
  5
12f
100
AcDbEntity
  8
Layer_1
 62
7
100
AcDbSpline
 70
8
 71
3
 72
8
 73
4
 74
0
 40
0
 40
0
 40
0
 40
0
 40
1
 40
1
 40
1
 40
1
 10
69.743657
 20
58.855839
 30
0.0
 10
68.945067
 20
58.855842
 30
0.0
 10
68.298634
 20
59.503085
 30
0.0
 10
68.298631
 20
60.301680
 30
0.0
  0
SPLINE
  5
130
100
AcDbEntity
  8
Layer_1
 62
7
100
AcDbSpline
 70
8
 71
3
 72
8
 73
4
 74
0
 40
0
 40
0
 40
0
 40
0
 40
1
 40
1
 40
1
 40
1
 10
68.298631
 20
60.301680
 30
0.0
 10
68.298628
 20
61.100285
 30
0.0
 10
68.945064
 20
61.746709
 30
0.0
 10
69.743657
 20
61.746709
 30
0.0
  0
LINE
  5
131
100
AcDbEntity
  8
Layer_1
 62
7
100
AcDbLine
 10
69.743657
 20
61.746709
 30
0.0
 11
69.743657
 21
61.746709
 31
0.0
  0
SPLINE
  5
132
100
AcDbEntity
  8
Layer_1
 62
7
100
AcDbSpline
 70
8
 71
3
 72
8
 73
4
 74
0
 40
0
 40
0
 40
0
 40
0
 40
1
 40
1
 40
1
 40
1
 10
51.081464
 20
61.591645
 30
0.0
 10
50.253297
 20
61.591642
 30
0.0
 10
49.581476
 20
60.919826
 30
0.0
 10
49.581476
 20
60.091634
 30
0.0
  0
SPLINE
  5
133
100
AcDbEntity
  8
Layer_1
 62
7
100
AcDbSpline
 70
8
 71
3
 72
8
 73
4
 74
0
 40
0
 40
0
 40
0
 40
0
 40
1
 40
1
 40
1
 40
1
 10
49.581476
 20
60.091634
 30
0.0
 10
49.581473
 20
59.263464
 30
0.0
 10
50.253294
 20
58.591645
 30
0.0
 10
51.081464
 20
58.591645
 30
0.0
  0
SPLINE
  5
134
100
AcDbEntity
  8
Layer_1
 62
7
100
AcDbSpline
 70
8
 71
3
 72
8
 73
4
 74
0
 40
0
 40
0
 40
0
 40
0
 40
1
 40
1
 40
1
 40
1
 10
51.081464
 20
58.591645
 30
0.0
 10
51.909659
 20
58.591648
 30
0.0
 10
52.581481
 20
59.263467
 30
0.0
 10
52.581475
 20
60.091634
 30
0.0
  0
SPLINE
  5
135
100
AcDbEntity
  8
Layer_1
 62
7
100
AcDbSpline
 70
8
 71
3
 72
8
 73
4
 74
0
 40
0
 40
0
 40
0
 40
0
 40
1
 40
1
 40
1
 40
1
 10
52.581475
 20
60.091634
 30
0.0
 10
52.581472
 20
60.919820
 30
0.0
 10
51.909657
 20
61.591642
 30
0.0
 10
51.081464
 20
61.591645
 30
0.0
  0
LINE
  5
136
100
AcDbEntity
  8
Layer_1
 62
7
100
AcDbLine
 10
51.081464
 20
61.591645
 30
0.0
 11
51.081464
 21
61.591645
 31
0.0
  0
SPLINE
  5
137
100
AcDbEntity
  8
Layer_1
 62
7
100
AcDbSpline
 70
8
 71
3
 72
8
 73
4
 74
0
 40
0
 40
0
 40
0
 40
0
 40
1
 40
1
 40
1
 40
1
 10
51.081464
 20
61.537060
 30
0.0
 10
51.880283
 20
61.537057
 30
0.0
 10
52.527720
 20
60.890450
 30
0.0
 10
52.527723
 20
60.091634
 30
0.0
  0
SPLINE
  5
138
100
AcDbEntity
  8
Layer_1
 62
7
100
AcDbSpline
 70
8
 71
3
 72
8
 73
4
 74
0
 40
0
 40
0
 40
0
 40
0
 40
1
 40
1
 40
1
 40
1
 10
52.527723
 20
60.091634
 30
0.0
 10
52.527723
 20
59.292838
 30
0.0
 10
51.880286
 20
58.645400
 30
0.0
 10
51.081464
 20
58.645397
 30
0.0
  0
SPLINE
  5
139
100
AcDbEntity
  8
Layer_1
 62
7
100
AcDbSpline
 70
8
 71
3
 72
8
 73
4
 74
0
 40
0
 40
0
 40
0
 40
0
 40
1
 40
1
 40
1
 40
1
 10
51.081464
 20
58.645397
 30
0.0
 10
50.282665
 20
58.645400
 30
0.0
 10
49.636060
 20
59.292835
 30
0.0
 10
49.636063
 20
60.091634
 30
0.0
  0
SPLINE
  5
13a
100
AcDbEntity
  8
Layer_1
 62
7
100
AcDbSpline
 70
8
 71
3
 72
8
 73
4
 74
0
 40
0
 40
0
 40
0
 40
0
 40
1
 40
1
 40
1
 40
1
 10
49.636063
 20
60.091634
 30
0.0
 10
49.636063
 20
60.890452
 30
0.0
 10
50.282665
 20
61.537060
 30
0.0
 10
51.081464
 20
61.537060
 30
0.0
  0
LINE
  5
13b
100
AcDbEntity
  8
Layer_1
 62
7
100
AcDbLine
 10
51.081464
 20
61.537060
 30
0.0
 11
51.081464
 21
61.537060
 31
0.0
  0
SPLINE
  5
13c
100
AcDbEntity
  8
Layer_1
 62
7
100
AcDbSpline
 70
8
 71
3
 72
8
 73
4
 74
0
 40
0
 40
0
 40
0
 40
0
 40
1
 40
1
 40
1
 40
1
 10
60.660462
 20
103.438409
 30
0.0
 10
59.084846
 20
103.438409
 30
0.0
 10
57.813435
 20
102.081385
 30
0.0
 10
57.813435
 20
100.421608
 30
0.0
  0
SPLINE
  5
13d
100
AcDbEntity
  8
Layer_1
 62
7
100
AcDbSpline
 70
8
 71
3
 72
8
 73
4
 74
0
 40
0
 40
0
 40
0
 40
0
 40
1
 40
1
 40
1
 40
1
 10
57.813435
 20
100.421608
 30
0.0
 10
57.813435
 20
98.761833
 30
0.0
 10
59.084846
 20
97.405357
 30
0.0
 10
60.660462
 20
97.405357
 30
0.0
  0
SPLINE
  5
13e
100
AcDbEntity
  8
Layer_1
 62
7
100
AcDbSpline
 70
8
 71
3
 72
8
 73
4
 74
0
 40
0
 40
0
 40
0
 40
0
 40
1
 40
1
 40
1
 40
1
 10
60.660462
 20
97.405357
 30
0.0
 10
62.236080
 20
97.405357
 30
0.0
 10
63.508042
 20
98.761833
 30
0.0
 10
63.508042
 20
100.421608
 30
0.0
  0
SPLINE
  5
13f
100
AcDbEntity
  8
Layer_1
 62
7
100
AcDbSpline
 70
8
 71
3
 72
8
 73
4
 74
0
 40
0
 40
0
 40
0
 40
0
 40
1
 40
1
 40
1
 40
1
 10
63.508042
 20
100.421608
 30
0.0
 10
63.508042
 20
102.081385
 30
0.0
 10
62.236080
 20
103.438409
 30
0.0
 10
60.660462
 20
103.438409
 30
0.0
  0
LINE
  5
140
100
AcDbEntity
  8
Layer_1
 62
7
100
AcDbLine
 10
60.660462
 20
103.438409
 30
0.0
 11
60.660462
 21
103.438409
 31
0.0
  0
SPLINE
  5
141
100
AcDbEntity
  8
Layer_1
 62
7
100
AcDbSpline
 70
8
 71
3
 72
8
 73
4
 74
0
 40
0
 40
0
 40
0
 40
0
 40
1
 40
1
 40
1
 40
1
 10
60.660462
 20
103.156187
 30
0.0
 10
62.074023
 20
103.156187
 30
0.0
 10
63.225819
 20
101.937832
 30
0.0
 10
63.225819
 20
100.421608
 30
0.0
  0
SPLINE
  5
142
100
AcDbEntity
  8
Layer_1
 62
7
100
AcDbSpline
 70
8
 71
3
 72
8
 73
4
 74
0
 40
0
 40
0
 40
0
 40
0
 40
1
 40
1
 40
1
 40
1
 10
63.225819
 20
100.421608
 30
0.0
 10
63.225819
 20
98.905385
 30
0.0
 10
62.074023
 20
97.687579
 30
0.0
 10
60.660462
 20
97.687579
 30
0.0
  0
SPLINE
  5
143
100
AcDbEntity
  8
Layer_1
 62
7
100
AcDbSpline
 70
8
 71
3
 72
8
 73
4
 74
0
 40
0
 40
0
 40
0
 40
0
 40
1
 40
1
 40
1
 40
1
 10
60.660462
 20
97.687579
 30
0.0
 10
59.246901
 20
97.687579
 30
0.0
 10
58.095657
 20
98.905385
 30
0.0
 10
58.095657
 20
100.421608
 30
0.0
  0
SPLINE
  5
144
100
AcDbEntity
  8
Layer_1
 62
7
100
AcDbSpline
 70
8
 71
3
 72
8
 73
4
 74
0
 40
0
 40
0
 40
0
 40
0
 40
1
 40
1
 40
1
 40
1
 10
58.095657
 20
100.421608
 30
0.0
 10
58.095657
 20
101.937832
 30
0.0
 10
59.246901
 20
103.156187
 30
0.0
 10
60.660462
 20
103.156187
 30
0.0
  0
LINE
  5
145
100
AcDbEntity
  8
Layer_1
 62
7
100
AcDbLine
 10
60.660462
 20
103.156187
 30
0.0
 11
60.660462
 21
103.156187
 31
0.0
  0
SPLINE
  5
146
100
AcDbEntity
  8
Layer_1
 62
7
100
AcDbSpline
 70
8
 71
3
 72
8
 73
4
 74
0
 40
0
 40
0
 40
0
 40
0
 40
1
 40
1
 40
1
 40
1
 10
24.364841
 20
82.021232
 30
0.0
 10
22.651585
 20
82.021232
 30
0.0
 10
21.254886
 20
80.679536
 30
0.0
 10
21.254886
 20
79.021517
 30
0.0
  0
SPLINE
  5
147
100
AcDbEntity
  8
Layer_1
 62
7
100
AcDbSpline
 70
8
 71
3
 72
8
 73
4
 74
0
 40
0
 40
0
 40
0
 40
0
 40
1
 40
1
 40
1
 40
1
 10
21.254886
 20
79.021517
 30
0.0
 10
21.254886
 20
77.363498
 30
0.0
 10
22.651585
 20
76.021252
 30
0.0
 10
24.364841
 20
76.021252
 30
0.0
  0
SPLINE
  5
148
100
AcDbEntity
  8
Layer_1
 62
7
100
AcDbSpline
 70
8
 71
3
 72
8
 73
4
 74
0
 40
0
 40
0
 40
0
 40
0
 40
1
 40
1
 40
1
 40
1
 10
24.364841
 20
76.021252
 30
0.0
 10
26.078099
 20
76.021252
 30
0.0
 10
27.474247
 20
77.363498
 30
0.0
 10
27.474247
 20
79.021517
 30
0.0
  0
SPLINE
  5
149
100
AcDbEntity
  8
Layer_1
 62
7
100
AcDbSpline
 70
8
 71
3
 72
8
 73
4
 74
0
 40
0
 40
0
 40
0
 40
0
 40
1
 40
1
 40
1
 40
1
 10
27.474247
 20
79.021517
 30
0.0
 10
27.474247
 20
80.679536
 30
0.0
 10
26.078099
 20
82.021232
 30
0.0
 10
24.364841
 20
82.021232
 30
0.0
  0
LINE
  5
14a
100
AcDbEntity
  8
Layer_1
 62
7
100
AcDbLine
 10
24.364841
 20
82.021232
 30
0.0
 11
24.364841
 21
82.021232
 31
0.0
  0
SPLINE
  5
14b
100
AcDbEntity
  8
Layer_1
 62
7
100
AcDbSpline
 70
8
 71
3
 72
8
 73
4
 74
0
 40
0
 40
0
 40
0
 40
0
 40
1
 40
1
 40
1
 40
1
 10
24.364841
 20
81.757199
 30
0.0
 10
25.940671
 20
81.757199
 30
0.0
 10
27.210214
 20
80.531392
 30
0.0
 10
27.210217
 20
79.021517
 30
0.0
  0
SPLINE
  5
14c
100
AcDbEntity
  8
Layer_1
 62
7
100
AcDbSpline
 70
8
 71
3
 72
8
 73
4
 74
0
 40
0
 40
0
 40
0
 40
0
 40
1
 40
1
 40
1
 40
1
 10
27.210217
 20
79.021517
 30
0.0
 10
27.210214
 20
77.511642
 30
0.0
 10
25.940671
 20
76.285285
 30
0.0
 10
24.364841
 20
76.285285
 30
0.0
  0
SPLINE
  5
14d
100
AcDbEntity
  8
Layer_1
 62
7
100
AcDbSpline
 70
8
 71
3
 72
8
 73
4
 74
0
 40
0
 40
0
 40
0
 40
0
 40
1
 40
1
 40
1
 40
1
 10
24.364841
 20
76.285285
 30
0.0
 10
22.789014
 20
76.285285
 30
0.0
 10
21.518918
 20
77.511642
 30
0.0
 10
21.518918
 20
79.021517
 30
0.0
  0
SPLINE
  5
14e
100
AcDbEntity
  8
Layer_1
 62
7
100
AcDbSpline
 70
8
 71
3
 72
8
 73
4
 74
0
 40
0
 40
0
 40
0
 40
0
 40
1
 40
1
 40
1
 40
1
 10
21.518918
 20
79.021517
 30
0.0
 10
21.518918
 20
80.531392
 30
0.0
 10
22.789014
 20
81.757199
 30
0.0
 10
24.364841
 20
81.757199
 30
0.0
  0
LINE
  5
14f
100
AcDbEntity
  8
Layer_1
 62
7
100
AcDbLine
 10
24.364841
 20
81.757199
 30
0.0
 11
24.364841
 21
81.757199
 31
0.0
  0
SPLINE
  5
150
100
AcDbEntity
  8
Layer_1
 62
7
100
AcDbSpline
 70
8
 71
3
 72
8
 73
4
 74
0
 40
0
 40
0
 40
0
 40
0
 40
1
 40
1
 40
1
 40
1
 10
24.824304
 20
43.758883
 30
0.0
 10
23.190060
 20
43.758883
 30
0.0
 10
21.864279
 20
42.413877
 30
0.0
 10
21.864279
 20
40.759169
 30
0.0
  0
SPLINE
  5
151
100
AcDbEntity
  8
Layer_1
 62
7
100
AcDbSpline
 70
8
 71
3
 72
8
 73
4
 74
0
 40
0
 40
0
 40
0
 40
0
 40
1
 40
1
 40
1
 40
1
 10
21.864279
 20
40.759169
 30
0.0
 10
21.864279
 20
39.104460
 30
0.0
 10
23.190060
 20
37.758904
 30
0.0
 10
24.824304
 20
37.758904
 30
0.0
  0
SPLINE
  5
152
100
AcDbEntity
  8
Layer_1
 62
7
100
AcDbSpline
 70
8
 71
3
 72
8
 73
4
 74
0
 40
0
 40
0
 40
0
 40
0
 40
1
 40
1
 40
1
 40
1
 10
24.824304
 20
37.758904
 30
0.0
 10
26.458549
 20
37.758904
 30
0.0
 10
27.784330
 20
39.104460
 30
0.0
 10
27.784330
 20
40.759169
 30
0.0
  0
SPLINE
  5
153
100
AcDbEntity
  8
Layer_1
 62
7
100
AcDbSpline
 70
8
 71
3
 72
8
 73
4
 74
0
 40
0
 40
0
 40
0
 40
0
 40
1
 40
1
 40
1
 40
1
 10
27.784330
 20
40.759169
 30
0.0
 10
27.784330
 20
42.413877
 30
0.0
 10
26.458549
 20
43.758883
 30
0.0
 10
24.824304
 20
43.758883
 30
0.0
  0
LINE
  5
154
100
AcDbEntity
  8
Layer_1
 62
7
100
AcDbLine
 10
24.824304
 20
43.758883
 30
0.0
 11
24.824304
 21
43.758883
 31
0.0
  0
SPLINE
  5
155
100
AcDbEntity
  8
Layer_1
 62
7
100
AcDbSpline
 70
8
 71
3
 72
8
 73
4
 74
0
 40
0
 40
0
 40
0
 40
0
 40
1
 40
1
 40
1
 40
1
 10
24.824304
 20
43.537294
 30
0.0
 10
26.336903
 20
43.537294
 30
0.0
 10
27.562190
 20
42.295584
 30
0.0
 10
27.562190
 20
40.759169
 30
0.0
  0
SPLINE
  5
156
100
AcDbEntity
  8
Layer_1
 62
7
100
AcDbSpline
 70
8
 71
3
 72
8
 73
4
 74
0
 40
0
 40
0
 40
0
 40
0
 40
1
 40
1
 40
1
 40
1
 10
27.562190
 20
40.759169
 30
0.0
 10
27.562190
 20
39.222754
 30
0.0
 10
26.336903
 20
37.981044
 30
0.0
 10
24.824304
 20
37.981044
 30
0.0
  0
SPLINE
  5
157
100
AcDbEntity
  8
Layer_1
 62
7
100
AcDbSpline
 70
8
 71
3
 72
8
 73
4
 74
0
 40
0
 40
0
 40
0
 40
0
 40
1
 40
1
 40
1
 40
1
 10
24.824304
 20
37.981044
 30
0.0
 10
23.311703
 20
37.981044
 30
0.0
 10
22.086419
 20
39.222754
 30
0.0
 10
22.086419
 20
40.759169
 30
0.0
  0
SPLINE
  5
158
100
AcDbEntity
  8
Layer_1
 62
7
100
AcDbSpline
 70
8
 71
3
 72
8
 73
4
 74
0
 40
0
 40
0
 40
0
 40
0
 40
1
 40
1
 40
1
 40
1
 10
22.086419
 20
40.759169
 30
0.0
 10
22.086419
 20
42.295584
 30
0.0
 10
23.311703
 20
43.537294
 30
0.0
 10
24.824304
 20
43.537294
 30
0.0
  0
LINE
  5
159
100
AcDbEntity
  8
Layer_1
 62
7
100
AcDbLine
 10
24.824304
 20
43.537294
 30
0.0
 11
24.824304
 21
43.537294
 31
0.0
  0
SPLINE
  5
15a
100
AcDbEntity
  8
Layer_1
 62
7
100
AcDbSpline
 70
8
 71
3
 72
8
 73
4
 74
0
 40
0
 40
0
 40
0
 40
0
 40
1
 40
1
 40
1
 40
1
 10
60.483523
 20
22.727263
 30
0.0
 10
58.882868
 20
22.727263
 30
0.0
 10
57.587437
 20
21.379945
 30
0.0
 10
57.587437
 20
19.726998
 30
0.0
  0
SPLINE
  5
15b
100
AcDbEntity
  8
Layer_1
 62
7
100
AcDbSpline
 70
8
 71
3
 72
8
 73
4
 74
0
 40
0
 40
0
 40
0
 40
0
 40
1
 40
1
 40
1
 40
1
 10
57.587437
 20
19.726998
 30
0.0
 10
57.587437
 20
18.074051
 30
0.0
 10
58.882868
 20
16.727286
 30
0.0
 10
60.483523
 20
16.727286
 30
0.0
  0
SPLINE
  5
15c
100
AcDbEntity
  8
Layer_1
 62
7
100
AcDbSpline
 70
8
 71
3
 72
8
 73
4
 74
0
 40
0
 40
0
 40
0
 40
0
 40
1
 40
1
 40
1
 40
1
 10
60.483523
 20
16.727286
 30
0.0
 10
62.084177
 20
16.727286
 30
0.0
 10
63.380158
 20
18.074051
 30
0.0
 10
63.380158
 20
19.726998
 30
0.0
  0
SPLINE
  5
15d
100
AcDbEntity
  8
Layer_1
 62
7
100
AcDbSpline
 70
8
 71
3
 72
8
 73
4
 74
0
 40
0
 40
0
 40
0
 40
0
 40
1
 40
1
 40
1
 40
1
 10
63.380158
 20
19.726998
 30
0.0
 10
63.380158
 20
21.379945
 30
0.0
 10
62.084177
 20
22.727263
 30
0.0
 10
60.483523
 20
22.727263
 30
0.0
  0
LINE
  5
15e
100
AcDbEntity
  8
Layer_1
 62
7
100
AcDbLine
 10
60.483523
 20
22.727263
 30
0.0
 11
60.483523
 21
22.727263
 31
0.0
  0
SPLINE
  5
15f
100
AcDbEntity
  8
Layer_1
 62
7
100
AcDbSpline
 70
8
 71
3
 72
8
 73
4
 74
0
 40
0
 40
0
 40
0
 40
0
 40
1
 40
1
 40
1
 40
1
 10
60.483523
 20
22.477564
 30
0.0
 10
61.944344
 20
22.477564
 30
0.0
 10
63.130457
 20
21.250013
 30
0.0
 10
63.130459
 20
19.726998
 30
0.0
  0
SPLINE
  5
160
100
AcDbEntity
  8
Layer_1
 62
7
100
AcDbSpline
 70
8
 71
3
 72
8
 73
4
 74
0
 40
0
 40
0
 40
0
 40
0
 40
1
 40
1
 40
1
 40
1
 10
63.130459
 20
19.726998
 30
0.0
 10
63.130459
 20
18.203983
 30
0.0
 10
61.944347
 20
16.976435
 30
0.0
 10
60.483523
 20
16.976435
 30
0.0
  0
SPLINE
  5
161
100
AcDbEntity
  8
Layer_1
 62
7
100
AcDbSpline
 70
8
 71
3
 72
8
 73
4
 74
0
 40
0
 40
0
 40
0
 40
0
 40
1
 40
1
 40
1
 40
1
 10
60.483523
 20
16.976435
 30
0.0
 10
59.022698
 20
16.976435
 30
0.0
 10
57.836586
 20
18.203983
 30
0.0
 10
57.836586
 20
19.726998
 30
0.0
  0
SPLINE
  5
162
100
AcDbEntity
  8
Layer_1
 62
7
100
AcDbSpline
 70
8
 71
3
 72
8
 73
4
 74
0
 40
0
 40
0
 40
0
 40
0
 40
1
 40
1
 40
1
 40
1
 10
57.836586
 20
19.726998
 30
0.0
 10
57.836589
 20
21.250013
 30
0.0
 10
59.022701
 20
22.477564
 30
0.0
 10
60.483523
 20
22.477564
 30
0.0
  0
LINE
  5
163
100
AcDbEntity
  8
Layer_1
 62
7
100
AcDbLine
 10
60.483523
 20
22.477564
 30
0.0
 11
60.483523
 21
22.477564
 31
0.0
  0
SPLINE
  5
164
100
AcDbEntity
  8
Layer_1
 62
7
100
AcDbSpline
 70
8
 71
3
 72
8
 73
4
 74
0
 40
0
 40
0
 40
0
 40
0
 40
1
 40
1
 40
1
 40
1
 10
96.914189
 20
43.933542
 30
0.0
 10
95.258648
 20
43.933542
 30
0.0
 10
93.914478
 20
42.588821
 30
0.0
 10
93.914478
 20
40.933277
 30
0.0
  0
SPLINE
  5
165
100
AcDbEntity
  8
Layer_1
 62
7
100
AcDbSpline
 70
8
 71
3
 72
8
 73
4
 74
0
 40
0
 40
0
 40
0
 40
0
 40
1
 40
1
 40
1
 40
1
 10
93.914478
 20
40.933277
 30
0.0
 10
93.914475
 20
39.277736
 30
0.0
 10
95.258648
 20
37.933565
 30
0.0
 10
96.914189
 20
37.933565
 30
0.0
  0
SPLINE
  5
166
100
AcDbEntity
  8
Layer_1
 62
7
100
AcDbSpline
 70
8
 71
3
 72
8
 73
4
 74
0
 40
0
 40
0
 40
0
 40
0
 40
1
 40
1
 40
1
 40
1
 10
96.914189
 20
37.933565
 30
0.0
 10
98.569733
 20
37.933563
 30
0.0
 10
99.914457
 20
39.277733
 30
0.0
 10
99.914454
 20
40.933277
 30
0.0
  0
SPLINE
  5
167
100
AcDbEntity
  8
Layer_1
 62
7
100
AcDbSpline
 70
8
 71
3
 72
8
 73
4
 74
0
 40
0
 40
0
 40
0
 40
0
 40
1
 40
1
 40
1
 40
1
 10
99.914454
 20
40.933277
 30
0.0
 10
99.914454
 20
42.588821
 30
0.0
 10
98.569733
 20
43.933542
 30
0.0
 10
96.914189
 20
43.933542
 30
0.0
  0
LINE
  5
168
100
AcDbEntity
  8
Layer_1
 62
7
100
AcDbLine
 10
96.914189
 20
43.933542
 30
0.0
 11
96.914189
 21
43.933542
 31
0.0
  0
SPLINE
  5
169
100
AcDbEntity
  8
Layer_1
 62
7
100
AcDbSpline
 70
8
 71
3
 72
8
 73
4
 74
0
 40
0
 40
0
 40
0
 40
0
 40
1
 40
1
 40
1
 40
1
 10
96.914189
 20
43.711955
 30
0.0
 10
98.450048
 20
43.711955
 30
0.0
 10
99.692865
 20
42.469136
 30
0.0
 10
99.692868
 20
40.933277
 30
0.0
  0
SPLINE
  5
16a
100
AcDbEntity
  8
Layer_1
 62
7
100
AcDbSpline
 70
8
 71
3
 72
8
 73
4
 74
0
 40
0
 40
0
 40
0
 40
0
 40
1
 40
1
 40
1
 40
1
 10
99.692868
 20
40.933277
 30
0.0
 10
99.692868
 20
39.397418
 30
0.0
 10
98.450048
 20
38.155152
 30
0.0
 10
96.914189
 20
38.155152
 30
0.0
  0
SPLINE
  5
16b
100
AcDbEntity
  8
Layer_1
 62
7
100
AcDbSpline
 70
8
 71
3
 72
8
 73
4
 74
0
 40
0
 40
0
 40
0
 40
0
 40
1
 40
1
 40
1
 40
1
 10
96.914189
 20
38.155152
 30
0.0
 10
95.378333
 20
38.155155
 30
0.0
 10
94.135514
 20
39.397421
 30
0.0
 10
94.135514
 20
40.933277
 30
0.0
  0
SPLINE
  5
16c
100
AcDbEntity
  8
Layer_1
 62
7
100
AcDbSpline
 70
8
 71
3
 72
8
 73
4
 74
0
 40
0
 40
0
 40
0
 40
0
 40
1
 40
1
 40
1
 40
1
 10
94.135514
 20
40.933277
 30
0.0
 10
94.135514
 20
42.469136
 30
0.0
 10
95.378333
 20
43.711953
 30
0.0
 10
96.914189
 20
43.711955
 30
0.0
  0
LINE
  5
16d
100
AcDbEntity
  8
Layer_1
 62
7
100
AcDbLine
 10
96.914189
 20
43.711955
 30
0.0
 11
96.914189
 21
43.711955
 31
0.0
  0
SPLINE
  5
16e
100
AcDbEntity
  8
Layer_1
 62
7
100
AcDbSpline
 70
8
 71
3
 72
8
 73
4
 74
0
 40
0
 40
0
 40
0
 40
0
 40
1
 40
1
 40
1
 40
1
 10
96.567818
 20
84.076354
 30
0.0
 10
94.875391
 20
84.076354
 30
0.0
 10
93.510259
 20
82.726590
 30
0.0
 10
93.510259
 20
81.076642
 30
0.0
  0
SPLINE
  5
16f
100
AcDbEntity
  8
Layer_1
 62
7
100
AcDbSpline
 70
8
 71
3
 72
8
 73
4
 74
0
 40
0
 40
0
 40
0
 40
0
 40
1
 40
1
 40
1
 40
1
 10
93.510259
 20
81.076642
 30
0.0
 10
93.510259
 20
79.426692
 30
0.0
 10
94.875388
 20
78.076377
 30
0.0
 10
96.567818
 20
78.076377
 30
0.0
  0
SPLINE
  5
170
100
AcDbEntity
  8
Layer_1
 62
7
100
AcDbSpline
 70
8
 71
3
 72
8
 73
4
 74
0
 40
0
 40
0
 40
0
 40
0
 40
1
 40
1
 40
1
 40
1
 10
96.567818
 20
78.076377
 30
0.0
 10
98.260245
 20
78.076377
 30
0.0
 10
99.624779
 20
79.426692
 30
0.0
 10
99.624779
 20
81.076642
 30
0.0
  0
SPLINE
  5
171
100
AcDbEntity
  8
Layer_1
 62
7
100
AcDbSpline
 70
8
 71
3
 72
8
 73
4
 74
0
 40
0
 40
0
 40
0
 40
0
 40
1
 40
1
 40
1
 40
1
 10
99.624779
 20
81.076642
 30
0.0
 10
99.624779
 20
82.726590
 30
0.0
 10
98.260245
 20
84.076354
 30
0.0
 10
96.567818
 20
84.076354
 30
0.0
  0
LINE
  5
172
100
AcDbEntity
  8
Layer_1
 62
7
100
AcDbLine
 10
96.567818
 20
84.076354
 30
0.0
 11
96.567818
 21
84.076354
 31
0.0
  0
SPLINE
  5
173
100
AcDbEntity
  8
Layer_1
 62
7
100
AcDbSpline
 70
8
 71
3
 72
8
 73
4
 74
0
 40
0
 40
0
 40
0
 40
0
 40
1
 40
1
 40
1
 40
1
 10
96.567818
 20
83.778697
 30
0.0
 10
98.073680
 20
83.778697
 30
0.0
 10
99.301262
 20
82.575883
 30
0.0
 10
99.301262
 20
81.076642
 30
0.0
  0
SPLINE
  5
174
100
AcDbEntity
  8
Layer_1
 62
7
100
AcDbSpline
 70
8
 71
3
 72
8
 73
4
 74
0
 40
0
 40
0
 40
0
 40
0
 40
1
 40
1
 40
1
 40
1
 10
99.301262
 20
81.076642
 30
0.0
 10
99.301262
 20
79.577399
 30
0.0
 10
98.073682
 20
78.374585
 30
0.0
 10
96.567818
 20
78.374585
 30
0.0
  0
SPLINE
  5
175
100
AcDbEntity
  8
Layer_1
 62
7
100
AcDbSpline
 70
8
 71
3
 72
8
 73
4
 74
0
 40
0
 40
0
 40
0
 40
0
 40
1
 40
1
 40
1
 40
1
 10
96.567818
 20
78.374585
 30
0.0
 10
95.061954
 20
78.374585
 30
0.0
 10
93.833776
 20
79.577399
 30
0.0
 10
93.833776
 20
81.076642
 30
0.0
  0
SPLINE
  5
176
100
AcDbEntity
  8
Layer_1
 62
7
100
AcDbSpline
 70
8
 71
3
 72
8
 73
4
 74
0
 40
0
 40
0
 40
0
 40
0
 40
1
 40
1
 40
1
 40
1
 10
93.833776
 20
81.076642
 30
0.0
 10
93.833776
 20
82.575883
 30
0.0
 10
95.061954
 20
83.778697
 30
0.0
 10
96.567818
 20
83.778697
 30
0.0
  0
LINE
  5
177
100
AcDbEntity
  8
Layer_1
 62
7
100
AcDbLine
 10
96.567818
 20
83.778697
 30
0.0
 11
96.567818
 21
83.778697
 31
0.0
  0
ENDSEC
  0
SECTION
  2
OBJECTS
  0
DICTIONARY
  5
C
330
0
100
AcDbDictionary
  3
ACAD_GROUP
350
D
  3
ACAD_MLINESTYLE
350
17
  0
DICTIONARY
  5
D
330
C
100
AcDbDictionary
  0
DICTIONARY
  5
1A
330
C
100
AcDbDictionary
  0
DICTIONARY
  5
17
330
C
100
AcDbDictionary
  3
STANDARD
350
18
  0
DICTIONARY
  5
19
330
C
100
AcDbDictionary
  0
ENDSEC
  0
EOF
