<?xml version="1.0" encoding="UTF-8" standalone="no"?>
<!-- Created with Inkscape (http://www.inkscape.org/) -->

<svg
   xmlns:dc="http://purl.org/dc/elements/1.1/"
   xmlns:cc="http://creativecommons.org/ns#"
   xmlns:rdf="http://www.w3.org/1999/02/22-rdf-syntax-ns#"
   xmlns:svg="http://www.w3.org/2000/svg"
   xmlns="http://www.w3.org/2000/svg"
   xmlns:sodipodi="http://sodipodi.sourceforge.net/DTD/sodipodi-0.dtd"
   xmlns:inkscape="http://www.inkscape.org/namespaces/inkscape"
   width="119.99999mm"
   height="120mm"
   viewBox="0 0 425.19682 425.19685"
   id="svg4184"
   version="1.1"
   inkscape:version="0.91 r13725"
   sodipodi:docname="base2.svg">
  <defs
     id="defs4186" />
  <sodipodi:namedview
     id="base"
     pagecolor="#ffffff"
     bordercolor="#666666"
     borderopacity="1.0"
     inkscape:pageopacity="0.0"
     inkscape:pageshadow="2"
     inkscape:zoom="1.18"
     inkscape:cx="204.44789"
     inkscape:cy="193.56792"
     inkscape:document-units="px"
     inkscape:current-layer="layer1"
     showgrid="false"
     inkscape:window-width="1073"
     inkscape:window-height="756"
     inkscape:window-x="0"
     inkscape:window-y="1"
     inkscape:window-maximized="0"
     fit-margin-top="0"
     fit-margin-left="0"
     fit-margin-right="0"
     fit-margin-bottom="0" />
  <metadata
     id="metadata4189">
    <rdf:RDF>
      <cc:Work
         rdf:about="">
        <dc:format>image/svg+xml</dc:format>
        <dc:type
           rdf:resource="http://purl.org/dc/dcmitype/StillImage" />
        <dc:title />
      </cc:Work>
    </rdf:RDF>
  </metadata>
  <g
     inkscape:label="Layer 1"
     inkscape:groupmode="layer"
     id="layer1"
     transform="translate(-18.475416,-30.256651)">
    <path
       style="color:#000000;font-style:normal;font-variant:normal;font-weight:normal;font-stretch:normal;font-size:medium;line-height:normal;font-family:sans-serif;text-indent:0;text-align:start;text-decoration:none;text-decoration-line:none;text-decoration-style:solid;text-decoration-color:#000000;letter-spacing:normal;word-spacing:normal;text-transform:none;direction:ltr;block-progression:tb;writing-mode:lr-tb;baseline-shift:baseline;text-anchor:start;white-space:normal;clip-rule:nonzero;display:inline;overflow:visible;visibility:visible;opacity:1;isolation:auto;mix-blend-mode:normal;color-interpolation:sRGB;color-interpolation-filters:linearRGB;solid-color:#000000;solid-opacity:1;fill:#000000;fill-opacity:1;fill-rule:nonzero;stroke:none;stroke-width:1.0795784;stroke-linecap:butt;stroke-linejoin:miter;stroke-miterlimit:4;stroke-dasharray:none;stroke-dashoffset:0;stroke-opacity:1;color-rendering:auto;image-rendering:auto;shape-rendering:auto;text-rendering:auto;enable-background:accumulate"
       d="m 231.07422,30.255859 c -117.40847,-2e-6 -212.599611,95.191131 -212.599611,212.599611 0,117.40848 95.191141,212.59766 212.599611,212.59765 117.40846,0 212.59766,-95.18917 212.59766,-212.59765 0,-117.40848 -95.1892,-212.599611 -212.59766,-212.599611 z m 0,1.080079 c 116.82502,0 211.51758,94.694502 211.51758,211.519532 0,116.82503 -94.69256,211.51758 -211.51758,211.51758 C 114.2492,454.37305 19.554687,359.6805 19.554688,242.85547 19.554687,126.03044 114.2492,31.335935 231.07422,31.335938 Z"
       id="path4192-6"
       inkscape:connector-curvature="0" />
    <path
       style="color:#000000;font-style:normal;font-variant:normal;font-weight:normal;font-stretch:normal;font-size:medium;line-height:normal;font-family:sans-serif;text-indent:0;text-align:start;text-decoration:none;text-decoration-line:none;text-decoration-style:solid;text-decoration-color:#000000;letter-spacing:normal;word-spacing:normal;text-transform:none;direction:ltr;block-progression:tb;writing-mode:lr-tb;baseline-shift:baseline;text-anchor:start;white-space:normal;clip-rule:nonzero;display:inline;overflow:visible;visibility:visible;opacity:1;isolation:auto;mix-blend-mode:normal;color-interpolation:sRGB;color-interpolation-filters:linearRGB;solid-color:#000000;solid-opacity:1;fill:#000000;fill-opacity:1;fill-rule:nonzero;stroke:none;stroke-width:0.51342535;stroke-linecap:butt;stroke-linejoin:miter;stroke-miterlimit:4;stroke-dasharray:none;stroke-dashoffset:0;stroke-opacity:1;color-rendering:auto;image-rendering:auto;shape-rendering:auto;text-rendering:auto;enable-background:accumulate"
       d="m 233.04492,227.57617 c -7.82461,0 -14.17383,6.34921 -14.17383,14.17383 1e-5,7.82461 6.34922,14.17187 14.17383,14.17188 7.82462,0 14.17383,-6.34726 14.17383,-14.17188 0,-7.82462 -6.34921,-14.17383 -14.17383,-14.17383 z m 0,0.51367 c 7.54715,0 13.66016,6.11301 13.66016,13.66016 0,7.54714 -6.11302,13.65821 -13.66016,13.6582 -7.54714,0 -13.66015,-6.11106 -13.66015,-13.6582 -1e-5,-7.54714 6.11301,-13.66015 13.66015,-13.66016 z"
       id="path4239"
       inkscape:connector-curvature="0" />
    <path
       style="color:#000000;font-style:normal;font-variant:normal;font-weight:normal;font-stretch:normal;font-size:medium;line-height:normal;font-family:sans-serif;text-indent:0;text-align:start;text-decoration:none;text-decoration-line:none;text-decoration-style:solid;text-decoration-color:#000000;letter-spacing:normal;word-spacing:normal;text-transform:none;direction:ltr;block-progression:tb;writing-mode:lr-tb;baseline-shift:baseline;text-anchor:start;white-space:normal;clip-rule:nonzero;display:inline;overflow:visible;visibility:visible;opacity:1;isolation:auto;mix-blend-mode:normal;color-interpolation:sRGB;color-interpolation-filters:linearRGB;solid-color:#000000;solid-opacity:1;fill:#000000;fill-opacity:1;fill-rule:nonzero;stroke:none;stroke-width:0.12835637;stroke-linecap:butt;stroke-linejoin:miter;stroke-miterlimit:4;stroke-dasharray:none;stroke-dashoffset:0;stroke-opacity:1;color-rendering:auto;image-rendering:auto;shape-rendering:auto;text-rendering:auto;enable-background:accumulate"
       d="m 232.48261,269.27984 c -2.9337,0 -5.31639,2.37983 -5.3164,5.31352 0,2.93373 2.38268,5.31641 5.3164,5.3164 2.9337,0 5.31354,-2.38268 5.31352,-5.3164 0,-2.93369 -2.37983,-5.31351 -5.31352,-5.31352 z m 0,0.19337 c 2.82965,0 5.12015,2.2905 5.12017,5.12015 0,2.82967 -2.2905,5.12311 -5.12017,5.12312 -2.82967,0 -5.12312,-2.29344 -5.12311,-5.12312 0,-2.82967 2.29345,-5.12017 5.12311,-5.12015 z"
       id="path4239-0"
       inkscape:connector-curvature="0" />
    <path
       style="color:#000000;font-style:normal;font-variant:normal;font-weight:normal;font-stretch:normal;font-size:medium;line-height:normal;font-family:sans-serif;text-indent:0;text-align:start;text-decoration:none;text-decoration-line:none;text-decoration-style:solid;text-decoration-color:#000000;letter-spacing:normal;word-spacing:normal;text-transform:none;direction:ltr;block-progression:tb;writing-mode:lr-tb;baseline-shift:baseline;text-anchor:start;white-space:normal;clip-rule:nonzero;display:inline;overflow:visible;visibility:visible;opacity:1;isolation:auto;mix-blend-mode:normal;color-interpolation:sRGB;color-interpolation-filters:linearRGB;solid-color:#000000;solid-opacity:1;fill:#000000;fill-opacity:1;fill-rule:nonzero;stroke:none;stroke-width:0.12835626;stroke-linecap:butt;stroke-linejoin:miter;stroke-miterlimit:4;stroke-dasharray:none;stroke-dashoffset:0;stroke-opacity:1;color-rendering:auto;image-rendering:auto;shape-rendering:auto;text-rendering:auto;enable-background:accumulate"
       d="m 232.84179,202.88766 c -2.9337,-2e-5 -5.3164,2.37982 -5.3164,5.31352 -10e-6,2.93372 2.38268,5.3164 5.3164,5.3164 2.9337,-1e-5 5.31354,-2.3827 5.31352,-5.3164 0,-2.93369 -2.37983,-5.31352 -5.31352,-5.31352 z m 0,0.19335 c 2.82965,2e-5 5.12015,2.29052 5.12017,5.12017 0,2.82966 -2.2905,5.12311 -5.12017,5.12311 -2.82967,1e-5 -5.12312,-2.29344 -5.12311,-5.12311 0,-2.82967 2.29345,-5.12017 5.12311,-5.12017 z"
       id="path4239-0-6"
       inkscape:connector-curvature="0" />
    <path
       style="color:#000000;font-style:normal;font-variant:normal;font-weight:normal;font-stretch:normal;font-size:medium;line-height:normal;font-family:sans-serif;text-indent:0;text-align:start;text-decoration:none;text-decoration-line:none;text-decoration-style:solid;text-decoration-color:#000000;letter-spacing:normal;word-spacing:normal;text-transform:none;direction:ltr;block-progression:tb;writing-mode:lr-tb;baseline-shift:baseline;text-anchor:start;white-space:normal;clip-rule:nonzero;display:inline;overflow:visible;visibility:visible;opacity:1;isolation:auto;mix-blend-mode:normal;color-interpolation:sRGB;color-interpolation-filters:linearRGB;solid-color:#000000;solid-opacity:1;fill:#000000;fill-opacity:1;fill-rule:nonzero;stroke:none;stroke-width:0.12835644;stroke-linecap:butt;stroke-linejoin:miter;stroke-miterlimit:4;stroke-dasharray:none;stroke-dashoffset:0;stroke-opacity:1;color-rendering:auto;image-rendering:auto;shape-rendering:auto;text-rendering:auto;enable-background:accumulate"
       d="m 265.59861,236.47263 c -2.93372,1e-5 -5.31346,2.37981 -5.31345,5.3135 0,2.93365 2.37982,5.31348 5.31345,5.31348 2.9337,-1e-5 5.31646,-2.37984 5.31647,-5.31348 0,-2.93369 -2.38275,-5.31349 -5.31647,-5.3135 z m 0,0.19332 c 2.82972,2e-5 5.12312,2.29049 5.1231,5.12018 0,2.82967 -2.29338,5.12305 -5.1231,5.12306 -2.82965,-1e-5 -5.12016,-2.29339 -5.12017,-5.12306 -10e-6,-2.8297 2.29051,-5.12018 5.12017,-5.12018 z"
       id="path4239-0-1"
       inkscape:connector-curvature="0" />
    <path
       style="color:#000000;font-style:normal;font-variant:normal;font-weight:normal;font-stretch:normal;font-size:medium;line-height:normal;font-family:sans-serif;text-indent:0;text-align:start;text-decoration:none;text-decoration-line:none;text-decoration-style:solid;text-decoration-color:#000000;letter-spacing:normal;word-spacing:normal;text-transform:none;direction:ltr;block-progression:tb;writing-mode:lr-tb;baseline-shift:baseline;text-anchor:start;white-space:normal;clip-rule:nonzero;display:inline;overflow:visible;visibility:visible;opacity:1;isolation:auto;mix-blend-mode:normal;color-interpolation:sRGB;color-interpolation-filters:linearRGB;solid-color:#000000;solid-opacity:1;fill:#000000;fill-opacity:1;fill-rule:nonzero;stroke:none;stroke-width:0.12835644;stroke-linecap:butt;stroke-linejoin:miter;stroke-miterlimit:4;stroke-dasharray:none;stroke-dashoffset:0;stroke-opacity:1;color-rendering:auto;image-rendering:auto;shape-rendering:auto;text-rendering:auto;enable-background:accumulate"
       d="m 199.47273,237.21539 c -2.93445,10e-6 -5.31492,2.38046 -5.31492,5.315 -1e-5,2.93446 2.38046,5.31492 5.31492,5.31492 2.93455,-1e-5 5.31502,-2.38047 5.315,-5.31492 -1e-5,-2.93452 -2.38046,-5.31499 -5.315,-5.315 z m 0,0.19341 c 2.83046,10e-6 5.12453,2.29114 5.12454,5.12159 0,2.83038 -2.29407,5.12445 -5.12454,5.12446 -2.83039,-1e-5 -5.12151,-2.29407 -5.1215,-5.12446 0,-2.83046 2.29111,-5.12159 5.1215,-5.12159 z"
       id="path4239-0-6-4"
       inkscape:connector-curvature="0" />
    <path
       style="color:#000000;font-style:normal;font-variant:normal;font-weight:normal;font-stretch:normal;font-size:medium;line-height:normal;font-family:sans-serif;text-indent:0;text-align:start;text-decoration:none;text-decoration-line:none;text-decoration-style:solid;text-decoration-color:#000000;letter-spacing:normal;word-spacing:normal;text-transform:none;direction:ltr;block-progression:tb;writing-mode:lr-tb;baseline-shift:baseline;text-anchor:start;white-space:normal;clip-rule:nonzero;display:inline;overflow:visible;visibility:visible;opacity:1;isolation:auto;mix-blend-mode:normal;color-interpolation:sRGB;color-interpolation-filters:linearRGB;solid-color:#000000;solid-opacity:1;fill:#000000;fill-opacity:1;fill-rule:nonzero;stroke:none;stroke-width:1;stroke-linecap:butt;stroke-linejoin:miter;stroke-miterlimit:4;stroke-dasharray:none;stroke-dashoffset:0;stroke-opacity:1;color-rendering:auto;image-rendering:auto;shape-rendering:auto;text-rendering:auto;enable-background:accumulate"
       d="m 233.41406,88.939453 c -5.58289,0 -10.08789,4.808355 -10.08789,10.689453 0,5.881094 4.505,10.687504 10.08789,10.687504 5.5829,0 10.08985,-4.80641 10.08985,-10.687504 0,-5.881098 -4.50695,-10.689453 -10.08985,-10.689453 z m 0,1 c 5.00868,0 9.08985,4.317005 9.08985,9.689453 0,5.372444 -4.08117,9.687504 -9.08985,9.687504 -5.00868,0 -9.08789,-4.31506 -9.08789,-9.687504 0,-5.372448 4.07921,-9.689453 9.08789,-9.689453 z"
       id="path4633"
       inkscape:connector-curvature="0" />
    <path
       style="color:#000000;font-style:normal;font-variant:normal;font-weight:normal;font-stretch:normal;font-size:medium;line-height:normal;font-family:sans-serif;text-indent:0;text-align:start;text-decoration:none;text-decoration-line:none;text-decoration-style:solid;text-decoration-color:#000000;letter-spacing:normal;word-spacing:normal;text-transform:none;direction:ltr;block-progression:tb;writing-mode:lr-tb;baseline-shift:baseline;text-anchor:start;white-space:normal;clip-rule:nonzero;display:inline;overflow:visible;visibility:visible;opacity:1;isolation:auto;mix-blend-mode:normal;color-interpolation:sRGB;color-interpolation-filters:linearRGB;solid-color:#000000;solid-opacity:1;fill:#000000;fill-opacity:1;fill-rule:nonzero;stroke:none;stroke-width:0.93549794;stroke-linecap:butt;stroke-linejoin:miter;stroke-miterlimit:4;stroke-dasharray:none;stroke-dashoffset:0;stroke-opacity:1;color-rendering:auto;image-rendering:auto;shape-rendering:auto;text-rendering:auto;enable-background:accumulate"
       d="m 104.80753,164.82709 c -6.070592,0 -11.019525,4.75404 -11.019527,10.62891 2e-6,5.87487 4.948935,10.63086 11.019527,10.63086 6.0706,0 11.01758,-4.75599 11.01758,-10.63086 0,-5.87487 -4.94698,-10.62891 -11.01758,-10.62891 z m 0,0.93555 c 5.58365,0 10.08203,4.34341 10.08204,9.69336 -1e-5,5.34995 -4.49839,9.69531 -10.08204,9.69531 -5.58364,0 -10.083979,-4.34536 -10.08398,-9.69531 10e-7,-5.34995 4.50034,-9.69336 10.08398,-9.69336 z"
       id="path5282"
       inkscape:connector-curvature="0" />
    <path
       style="color:#000000;font-style:normal;font-variant:normal;font-weight:normal;font-stretch:normal;font-size:medium;line-height:normal;font-family:sans-serif;text-indent:0;text-align:start;text-decoration:none;text-decoration-line:none;text-decoration-style:solid;text-decoration-color:#000000;letter-spacing:normal;word-spacing:normal;text-transform:none;direction:ltr;block-progression:tb;writing-mode:lr-tb;baseline-shift:baseline;text-anchor:start;white-space:normal;clip-rule:nonzero;display:inline;overflow:visible;visibility:visible;opacity:1;isolation:auto;mix-blend-mode:normal;color-interpolation:sRGB;color-interpolation-filters:linearRGB;solid-color:#000000;solid-opacity:1;fill:#000000;fill-opacity:1;fill-rule:nonzero;stroke:none;stroke-width:0.78647792;stroke-linecap:butt;stroke-linejoin:miter;stroke-miterlimit:4;stroke-dasharray:none;stroke-dashoffset:0;stroke-opacity:1;color-rendering:auto;image-rendering:auto;shape-rendering:auto;text-rendering:auto;enable-background:accumulate"
       d="m 106.43555,300.40234 c -5.79063,0 -10.48828,4.76577 -10.48828,10.62891 0,5.86314 4.69765,10.63086 10.48828,10.63086 5.79063,0 10.48828,-4.76772 10.48828,-10.63086 0,-5.86314 -4.69765,-10.62891 -10.48828,-10.62891 z m 0,0.78516 c 5.3596,0 9.70117,4.39976 9.70117,9.84375 0,5.44399 -4.34157,9.84375 -9.70117,9.84375 -5.35961,0 -9.70117,-4.39976 -9.70117,-9.84375 0,-5.44399 4.34156,-9.84375 9.70117,-9.84375 z"
       id="path5284"
       inkscape:connector-curvature="0" />
    <path
       style="color:#000000;font-style:normal;font-variant:normal;font-weight:normal;font-stretch:normal;font-size:medium;line-height:normal;font-family:sans-serif;text-indent:0;text-align:start;text-decoration:none;text-decoration-line:none;text-decoration-style:solid;text-decoration-color:#000000;letter-spacing:normal;word-spacing:normal;text-transform:none;direction:ltr;block-progression:tb;writing-mode:lr-tb;baseline-shift:baseline;text-anchor:start;white-space:normal;clip-rule:nonzero;display:inline;overflow:visible;visibility:visible;opacity:1;isolation:auto;mix-blend-mode:normal;color-interpolation:sRGB;color-interpolation-filters:linearRGB;solid-color:#000000;solid-opacity:1;fill:#000000;fill-opacity:1;fill-rule:nonzero;stroke:none;stroke-width:0.88373417;stroke-linecap:butt;stroke-linejoin:miter;stroke-miterlimit:4;stroke-dasharray:none;stroke-dashoffset:0;stroke-opacity:1;color-rendering:auto;image-rendering:auto;shape-rendering:auto;text-rendering:auto;enable-background:accumulate"
       d="m 232.78711,374.92383 c -5.67161,0 -10.26172,4.77396 -10.26172,10.63086 0,5.8569 4.59011,10.6289 10.26172,10.6289 5.67161,0 10.26367,-4.772 10.26367,-10.6289 0,-5.8569 -4.59206,-10.63086 -10.26367,-10.63086 z m 0,0.88476 c 5.17614,0 9.3789,4.34959 9.37891,9.7461 0,5.39651 -4.20276,9.74609 -9.37891,9.74609 -5.17615,0 -9.37891,-4.34958 -9.37891,-9.74609 1e-5,-5.39651 4.20277,-9.7461 9.37891,-9.7461 z"
       id="path5286"
       inkscape:connector-curvature="0" />
    <path
       style="color:#000000;font-style:normal;font-variant:normal;font-weight:normal;font-stretch:normal;font-size:medium;line-height:normal;font-family:sans-serif;text-indent:0;text-align:start;text-decoration:none;text-decoration-line:none;text-decoration-style:solid;text-decoration-color:#000000;letter-spacing:normal;word-spacing:normal;text-transform:none;direction:ltr;block-progression:tb;writing-mode:lr-tb;baseline-shift:baseline;text-anchor:start;white-space:normal;clip-rule:nonzero;display:inline;overflow:visible;visibility:visible;opacity:1;isolation:auto;mix-blend-mode:normal;color-interpolation:sRGB;color-interpolation-filters:linearRGB;solid-color:#000000;solid-opacity:1;fill:#000000;fill-opacity:1;fill-rule:nonzero;stroke:none;stroke-width:0.78469414;stroke-linecap:butt;stroke-linejoin:miter;stroke-miterlimit:4;stroke-dasharray:none;stroke-dashoffset:0;stroke-opacity:1;color-rendering:auto;image-rendering:auto;shape-rendering:auto;text-rendering:auto;enable-background:accumulate"
       d="m 361.87215,299.78347 c -5.86609,0 -10.6289,4.76476 -10.6289,10.63086 -10e-6,5.86609 4.76281,10.6289 10.6289,10.6289 5.8661,1e-5 10.63087,-4.7628 10.63086,-10.6289 0,-5.8661 -4.76476,-10.63086 -10.63086,-10.63086 z m 0,0.78515 c 5.44202,0 9.8457,4.40369 9.84571,9.84571 0,5.44202 -4.40369,9.84375 -9.84571,9.84375 -5.44201,-1e-5 -9.8457,-4.40174 -9.8457,-9.84375 0,-5.44202 4.40369,-9.8457 9.8457,-9.84571 z"
       id="path5288"
       inkscape:connector-curvature="0" />
    <path
       style="color:#000000;font-style:normal;font-variant:normal;font-weight:normal;font-stretch:normal;font-size:medium;line-height:normal;font-family:sans-serif;text-indent:0;text-align:start;text-decoration:none;text-decoration-line:none;text-decoration-style:solid;text-decoration-color:#000000;letter-spacing:normal;word-spacing:normal;text-transform:none;direction:ltr;block-progression:tb;writing-mode:lr-tb;baseline-shift:baseline;text-anchor:start;white-space:normal;clip-rule:nonzero;display:inline;overflow:visible;visibility:visible;opacity:1;isolation:auto;mix-blend-mode:normal;color-interpolation:sRGB;color-interpolation-filters:linearRGB;solid-color:#000000;solid-opacity:1;fill:#000000;fill-opacity:1;fill-rule:nonzero;stroke:none;stroke-width:1.05549335;stroke-linecap:butt;stroke-linejoin:miter;stroke-miterlimit:4;stroke-dasharray:none;stroke-dashoffset:0;stroke-opacity:1;color-rendering:auto;image-rendering:auto;shape-rendering:auto;text-rendering:auto;enable-background:accumulate"
       d="m 360.64485,157.54516 c -5.99679,0 -10.83387,4.78263 -10.83387,10.6289 0,5.84628 4.83707,10.63086 10.83387,10.63086 5.99679,0 10.83175,-4.78458 10.83175,-10.63086 0,-5.84627 -4.83496,-10.6289 -10.83175,-10.6289 z m 0,1.05469 c 5.33573,0 9.68543,4.26194 9.68543,9.57421 0,5.31228 -4.34969,9.57422 -9.68543,9.57422 -5.33574,0 -9.68755,-4.26194 -9.68755,-9.57422 0,-5.31227 4.35181,-9.57421 9.68755,-9.57421 z"
       id="path5290"
       inkscape:connector-curvature="0" />
  </g>
</svg>
